<svg viewBox="0 0 242.37 187.83" xmlns="http://www.w3.org/2000/svg"><path d="m108.17 182.66c-.44-.41-56.57-43.87-69.36-54.42s-39.95-43.35-34.93-71.77 29.19-57.95 59.41-53.63 48.25 35.66 48.25 35.66 11-24.47 32.33-30.3 41.39-5 53.6 5.84 24.3 41.71 19.11 61.82-22.48 51.8-43.51 67-60.32 43.23-60.32 43.23z" fill="#f78e1e"/><path d="m125.58 75.3a19.46 19.46 0 0 0 -20.21 3.58c-5.07 4.43-8.34 12.31-3.19 17.94 5.53 6.05 14.29 4.36 20.73 8.44 7.06 4.48 1.81 12.2-4 14.62-4.69 2-14 4.64-16.9-.79-.84-1.56-3-.73-3.15.86-.61 9.79 14.08 6.58 19.37 5 7.29-2.25 15.25-9.28 12-17.76-3-8-12.52-7.89-19.3-10.27-2.56-.91-5.9-2.49-6.75-5.36-1.06-3.63 2-7.57 4.62-9.69a18 18 0 0 1 15.84-3.29c2.16.54 2.82-2.42.89-3.23z" fill="#fff"/><path d="m110.54 63.54c0 2.55.17 5.08 0 7.64-.11 2.34-.53 4.61 0 6.93a1.55 1.55 0 0 0 2.81.36c2.35-4.15 1.87-10.91 1-15.45-.44-2.18-3.76-1.61-3.8.52z" fill="#fff"/><path d="m115.72 122.34a54.9 54.9 0 0 0 -.41 7.48c0 2.44-.22 5.1.48 7.46a1.55 1.55 0 0 0 3 0c.71-2.36.52-5 .49-7.46a56.56 56.56 0 0 0 -.42-7.48c-.22-1.54-2.87-1.54-3.1 0z" fill="#fff"/><path d="m112.93 185c-30.4-31.63-75.54-49.7-97.43-89.23-10.35-18.7-14.35-42.85-3.68-62.31 9.18-16.7 27.57-28.19 46.73-28.2 21.65 0 42.79 15.1 50.87 35.1.8 2 4 1.23 3.3-.91-3.22-9.87-7.87-17.74-15.81-24.62a60.6 60.6 0 0 0 -26.34-13.5c-19.35-4.33-39.66 2.46-53.57 16.4-15.6 15.69-19.76 38.16-14.57 59.27 5.76 23.36 21.63 42.25 39.57 57.56 22 18.73 47.47 33 68.57 52.74a1.66 1.66 0 0 0 2.35-2.34z" fill="#054467"/><path d="m112.6 40.26c8.16-18.69 25.47-33.34 46.18-35.26 21.31-2 40.66 9 50.48 27.85 21 40.2-6.81 83.05-37.89 108.18a323.35 323.35 0 0 1 -31.5 21.94c-10.54 6.64-21.31 12.4-29.29 22.18a1.58 1.58 0 0 0 2.24 2.24c9.48-8.83 21.78-15 32.65-21.88a315.89 315.89 0 0 0 30.21-21.42c18-14.68 33.65-33 41.3-55.26 6.75-19.59 6.06-41.45-4-59.79a55.26 55.26 0 0 0 -50.98-28.99c-23.75 1.05-43.81 17.1-51.65 39.26-.45 1.29 1.68 2.22 2.24.95z" fill="#054467"/><path d="m181 20.67c7.66 2.74 12.41 12.4 15.59 19.36 3.45 7.58 4.41 15.39 5.57 23.54.16 1.15 2 1.05 2.23 0 2.13-9.17-1-18.9-5.17-27.08-3.7-7.34-9.18-16-17.53-18.32-1.62-.46-2.24 1.95-.69 2.5z" fill="#fff"/><path d="m202.69 77.54a1 1 0 0 0 .55-.12 1.33 1.33 0 0 0 .76-.76 1 1 0 0 0 .12-.55l-.05-.38a1.44 1.44 0 0 0 -.37-.63l-.29-.23a1.39 1.39 0 0 0 -.72-.19 1 1 0 0 0 -.55.12 1.33 1.33 0 0 0 -.76.76 1 1 0 0 0 -.12.55l.05.38a1.44 1.44 0 0 0 .37.63l.29.23a1.39 1.39 0 0 0 .72.19z" fill="#fff"/><path d="m25.16 91.78c4 9.43 9.39 18.2 17.24 24.9a1.57 1.57 0 0 0 2.22-2.22c-6.28-7.65-12.52-15.25-17.44-23.87-.76-1.35-2.6-.16-2 1.19z" fill="#fff"/><g fill="#ccc"><path d="m8 135.27a17.24 17.24 0 0 1 -3.4 7.57c-1.25 1.58-4.11 3-4.07 5.16a1.14 1.14 0 0 0 .81 1.06c2.52.92 5-2.89 6.2-4.68a19.59 19.59 0 0 0 3-8.77c.15-1.42-2.24-1.75-2.51-.34z"/><path d="m8.23 135a14.2 14.2 0 0 0 2.77 7.38c1.19 1.67 3.29 4.54 5.58 4.34.52-.05 1.07-.54.86-1.12-.67-1.82-2.88-2.89-4.08-4.43a19.88 19.88 0 0 1 -3-6.49 1.08 1.08 0 0 0 -2.12.29z"/><path d="m.38 148.72c2.27 1.93 4.25 3.64 5.61 6.35s1.38 5.9 2.78 8.56c.57 1.06 2.56.94 2.75-.36.89-5.89-3.57-15.44-10-16.5-1-.17-2.12 1.11-1.14 1.95z"/><path d="m15.51 144.85c-2.79 2.14-4.39 5.4-5.43 8.71-.93 3-2.07 7.47-.31 10.27a1.23 1.23 0 0 0 2.11 0c1.11-2.36.66-5.07 1.24-7.63.7-3.1 1.88-6.68 4.38-8.76 1.42-1.18-.5-3.73-2-2.59z"/><path d="m27.35 160.84a18.41 18.41 0 0 1 .32 2.86 3.58 3.58 0 0 0 .74 2.46 1.05 1.05 0 0 0 1.47 0c1.37-1.5.49-4.28.05-6s-2.89-1-2.58.71z"/><path d="m23.36 172.65a4.45 4.45 0 0 0 1.87-.36 2.94 2.94 0 0 0 1.21-.84.81.81 0 0 0 -.13-1 3 3 0 0 0 -1.32-.6 3.9 3.9 0 0 0 -1.63-.07 1.47 1.47 0 0 0 -1.42 1.42 1.43 1.43 0 0 0 1.42 1.42z"/><path d="m33.92 171c.06 0 .4.08.16 0 .1 0 .21.06.31.09a5.79 5.79 0 0 1 .71.21 1.65 1.65 0 1 0 .44-3.24 6 6 0 0 0 -2 .34 1.33 1.33 0 0 0 .35 2.6z"/><path d="m29.09 176c-.17 1.48-.65 3 .15 4.4a1 1 0 0 0 1.48.19c1.26-1.14 1.14-3 1.18-4.59a1.42 1.42 0 0 0 -1.4-1.4 1.43 1.43 0 0 0 -1.41 1.4z"/><path d="m231.14 18.53c.3 3.16.13 6.38.5 9.53.08.75 1.3 1.1 1.46.2a34.49 34.49 0 0 0 -.16-9.73c-.12-1.14-1.91-1.16-1.8 0z"/><path d="m224.56 34.24a14.44 14.44 0 0 1 2 .09c.64.06 1.37.26 1.93-.14a1 1 0 0 0 .33-1.27c-.35-.76-1.38-.92-2.14-1a6.81 6.81 0 0 0 -2.37.27 1 1 0 0 0 .28 2z"/><path d="m237.83 33.92c1.07.08 2.11.43 3.18.48a1.34 1.34 0 0 0 1.17-.67 1.47 1.47 0 0 0 .18-.68 1.3 1.3 0 0 0 -.67-1.17 5.06 5.06 0 0 0 -4.14-.06 1.07 1.07 0 0 0 .28 2.1z"/><path d="m232.26 37.25c-.18 3.4-.76 7.51.28 10.79a.9.9 0 0 0 1.73 0c1-3.28.46-7.4.27-10.79a1.14 1.14 0 0 0 -2.28 0z"/></g></svg>